<svg xmlns="http://www.w3.org/2000/svg" xmlns:xlink="http://www.w3.org/1999/xlink" version="1.1" width="1000" height="1000" viewBox="0 0 1000 1000" xml:space="preserve">
<desc>Created with Fabric.js 3.5.0</desc>
<defs>
</defs>
<rect x="0" y="0" width="100%" height="100%" fill="#ffffff"/>
<g transform="matrix(1 0 0 1 500 500)" style="" id="529939">
		
<path xml:space="preserve" font-family="Lato" font-size="577" font-style="normal" font-weight="bold" style="stroke: none; stroke-width: 1; stroke-dasharray: none; stroke-linecap: butt; stroke-dashoffset: 0; stroke-linejoin: miter; stroke-miterlimit: 4; is-custom-font: none; font-file-url: none; fill: rgb(82,113,255); fill-rule: nonzero; opacity: 1; white-space: pre;" d="M-183.49-235.91L-183.49 32.97Q-183.49 68.17-192.14 96.44Q-200.80 124.71-217.96 144.62Q-235.13 164.53-260.80 175.20Q-286.48 185.87-320.52 185.87L-320.52 185.87Q-336.10 185.87-351.10 184.00Q-366.11 182.12-382.55 178.09L-382.55 178.09L-378.51 131.93Q-377.94 125.58-373.75 121.68Q-369.57 117.79-361.49 117.79L-361.49 117.79Q-356.59 117.79-348.65 119.81Q-340.72 121.83-328.60 121.83L-328.60 121.83Q-312.16 121.83-299.46 117.07Q-286.77 112.31-278.26 101.92Q-269.75 91.54-265.42 74.95Q-261.09 58.36-261.09 34.70L-261.09 34.70L-261.09-235.91L-183.49-235.91ZM110.21 8.16L110.21 8.16Q115.11 17.39 119.29 27.34Q123.48 37.30 127.52 47.39L127.52 47.39Q131.56 37.01 135.88 26.91Q140.21 16.81 145.12 7.58L145.12 7.58L268.59-223.51Q270.90-227.83 273.35-230.43Q275.81-233.03 278.84-234.18Q281.86-235.34 285.61-235.62Q289.37-235.91 294.56-235.91L294.56-235.91L353.12-235.91L353.12 181.26L284.75 181.26L284.75-88.20Q284.75-95.70 285.18-104.64Q285.61-113.59 286.48-122.82L286.48-122.82L160.41 113.75Q156.08 121.83 149.15 126.30Q142.23 130.77 133.00 130.77L133.00 130.77L122.32 130.77Q113.09 130.77 106.17 126.30Q99.24 121.83 94.92 113.75L94.92 113.75L-32.89-123.69Q-31.74-114.17-31.30-105.08Q-30.87-95.99-30.87-88.20L-30.87-88.20L-30.87 181.26L-99.24 181.26L-99.24-235.91L-40.68-235.91Q-35.49-235.91-31.74-235.62Q-27.98-235.34-24.96-234.18Q-21.93-233.03-19.33-230.43Q-16.73-227.83-14.43-223.51L-14.43-223.51L110.21 8.16Z"/></g>
</svg>