<svg xmlns="http://www.w3.org/2000/svg" xmlns:xlink="http://www.w3.org/1999/xlink" version="1.1" width="1000" height="1000" viewBox="0 0 1000 1000" xml:space="preserve">
<desc>Created with Fabric.js 3.5.0</desc>
<defs>
</defs>
<rect x="0" y="0" width="100%" height="100%" fill="#ffffff"/>
<g transform="matrix(1 0 0 1 500.5994 518.3944)" style="" id="143184">
		
<path xml:space="preserve" font-family="Amaranth" font-size="680" font-style="normal" font-weight="bold" style="stroke: none; stroke-width: 1; stroke-dasharray: none; stroke-linecap: butt; stroke-dashoffset: 0; stroke-linejoin: miter; stroke-miterlimit: 4; is-custom-font: none; font-file-url: none; fill: rgb(82,113,255); fill-rule: nonzero; opacity: 1; white-space: pre;" d="M-238.34-246.74L-238.34 184.38Q-238.34 222.46-248.54 250.34Q-258.74 278.22-277.10 299.30Q-295.46 320.38-319.94 336.02Q-344.42 351.66-372.98 365.26L-372.98 365.26L-418.54 289.78Q-392.70 276.18-378.76 262.92Q-364.82 249.66-358.36 236.40Q-351.90 223.14-350.88 210.56Q-349.86 197.98-349.86 185.74L-349.86 185.74L-349.86-246.74L-238.34-246.74ZM196.18 76.94L138.38 213.62L53.38 213.62L-3.06 83.06Q-5.10 77.62-10.88 63.00Q-16.66 48.38-23.80 29.68Q-30.94 10.98-38.42-8.74Q-45.90-28.46-52.02-44.78L-52.02-44.78Q-52.02-27.10-52.02-3.98Q-52.02 19.14-52.02 42.94Q-52.02 66.74-52.36 87.82Q-52.70 108.90-53.38 121.14L-53.38 121.14L-56.78 213.62L-160.14 213.62L-132.94-246.74L-36.38-246.74L69.70 18.46Q74.46 30.70 82.28 52.80Q90.10 74.90 97.58 100.74L97.58 100.74Q105.06 75.58 112.88 53.48Q120.70 31.38 126.14 18.46L126.14 18.46L232.22-246.74L326.74-246.74L353.94 213.62L248.54 213.62L244.46 121.14Q243.78 108.22 243.44 87.14Q243.10 66.06 243.10 42.60Q243.10 19.14 243.44-4.32Q243.78-27.78 243.78-44.78L243.78-44.78Q238.34-30.50 231.88-12.48Q225.42 5.54 218.62 22.54Q211.82 39.54 205.70 54.16Q199.58 68.78 196.18 76.94L196.18 76.94Z"/></g>
</svg>